<svg xmlns="http://www.w3.org/2000/svg" viewBox="0 0 512 512">
  <rect width="512" height="512" rx="96" fill="#0f1220"/>
  <!-- Book stack -->
  <!-- Bottom book -->
  <rect x="80" y="340" width="352" height="52" rx="8" fill="#1a3a6a"/>
  <rect x="80" y="340" width="20" height="52" rx="4" fill="#2a5a9a"/>
  <rect x="80" y="386" width="352" height="6" rx="2" fill="#0d1a30"/>
  <!-- Middle book -->
  <rect x="96" y="282" width="320" height="52" rx="8" fill="#6a2a1a"/>
  <rect x="96" y="282" width="20" height="52" rx="4" fill="#9a4a2a"/>
  <rect x="96" y="328" width="320" height="6" rx="2" fill="#0d1a30"/>
  <!-- Top book -->
  <rect x="112" y="224" width="288" height="52" rx="8" fill="#1a4a2a"/>
  <rect x="112" y="224" width="20" height="52" rx="4" fill="#2a7a4a"/>
  <rect x="112" y="270" width="288" height="6" rx="2" fill="#0d1a30"/>
  <!-- Open book on top -->
  <path d="M120 160 Q256 130 392 160 L392 210 Q256 185 120 210 Z" fill="#c8a850" opacity="0.15"/>
  <path d="M120 160 Q188 142 256 140 L256 210 Q188 212 120 210 Z" fill="#e8c870"/>
  <path d="M256 140 Q324 142 392 160 L392 210 Q324 212 256 210 Z" fill="#c8a850"/>
  <!-- Book spine center line -->
  <rect x="253" y="140" width="6" height="70" rx="2" fill="#8a6820"/>
  <!-- Page lines left -->
  <line x1="145" y1="162" x2="240" y2="155" stroke="#8a6820" stroke-width="2.5" opacity="0.6"/>
  <line x1="145" y1="172" x2="240" y2="166" stroke="#8a6820" stroke-width="2" opacity="0.5"/>
  <line x1="145" y1="182" x2="240" y2="177" stroke="#8a6820" stroke-width="2" opacity="0.4"/>
  <!-- Page lines right -->
  <line x1="272" y1="155" x2="367" y2="162" stroke="#8a6820" stroke-width="2.5" opacity="0.6"/>
  <line x1="272" y1="166" x2="367" y2="172" stroke="#8a6820" stroke-width="2" opacity="0.5"/>
  <line x1="272" y1="177" x2="367" y2="182" stroke="#8a6820" stroke-width="2" opacity="0.4"/>
</svg>
